# AST/ASF file generated using VICON BodyLanguage
# -----------------------------------------------
:version 1.10
:name VICON
:units
  mass 1.0
  length 0.45
  angle deg
:documentation
   .ast/.asf automatically generated from VICON data using
   VICON BodyBuilder and BodyLanguage model FoxedUp or BRILLIANT.MOD
:root
   order TX TY TZ RX RY RZ
   axis XYZ
   position 0 0 0  
   orientation 0 0 0 
:bonedata
  begin
     id 1 
     name lhipjoint
     direction 0.635376 -0.686425 0.353719 
     length 2.47244 
     axis 0 0 0  XYZ
  end
  begin
     id 2 
     name lfemur
     direction 0.34202 -0.939693 0  
     length 7.25268  
     axis 0 0 20  XYZ
    dof rx ry rz
    limits (-160.0 20.0)
           (-70.0 70.0)
           (-60.0 70.0)
  end
  begin
     id 3 
     name ltibia
     direction 0.34202 -0.939693 0   
     length 7.6767   
     axis 0 0 20   XYZ
    dof rx
    limits (-10.0 170.0)
  end
  begin
     id 4 
     name lfoot
     direction 0.0803374 -0.220725 0.972022   
     length 2.22945   
     axis -90 7.62852e-016 20   XYZ
    dof rx rz
    limits (-45.0 90.0)
           (-70.0 20.0)
  end
  begin
     id 5 
     name ltoes
     direction 1.53579e-011 -4.21994e-011 1   
     length 1.11848   
     axis -90 7.62852e-016 20   XYZ
    dof rx
    limits (-90.0 20.0)
  end
  begin
     id 6 
     name rhipjoint
     direction -0.664428 -0.664335 0.342336   
     length 2.55466  
     axis 0 0 0  XYZ 
  end
  begin
     id 7 
     name rfemur
     direction -0.34202 -0.939693 0   
     length 6.83172   
     axis 0 0 -20   XYZ
    dof rx ry rz
    limits (-160.0 20.0)
           (-70.0 70.0)
           (-70.0 60.0)
  end
  begin
     id 8 
     name rtibia
     direction -0.34202 -0.939693 0   
     length 7.62692   
     axis 0 0 -20   XYZ
    dof rx
    limits (-10.0 170.0)
 end
 begin
     id 9 
     name rfoot
     direction -0.0949276 -0.260811 0.960711   
     length 2.19684  
     axis -90 -7.62852e-016 -20   XYZ
    dof rx rz
    limits (-45.0 90.0)
           (-20.0 70.0)
  end
  begin
     id 10 
     name rtoes
     direction -1.53543e-011 -4.2183e-011 1   
     length 1.09848   
     axis -90 -7.62852e-016 -20   XYZ
    dof rx
    limits (-90.0 20.0)
  end
  begin
     id 11 
     name lowerback
     direction 0.0118782 0.999815 -0.0151555   
     length 2.15772   
     axis 0 0 0   XYZ
    dof rx ry rz
    limits (-20.0 45.0)
           (-30.0 30.0)
           (-30.0 30.0)
  end
  begin
     id 12 
     name upperback
     direction 0.00130825 0.999065 0.0432113   
     length 2.14863   
     axis 0 0 0   XYZ
    dof rx ry rz
    limits (-20.0 45.0)
           (-30.0 30.0)
           (-30.0 30.0)
  end
  begin
     id 13 
     name thorax
     direction -0.00347005 0.998773 0.0494011   
     length 2.14936   
     axis 0 0 0   XYZ
    dof rx ry rz
    limits (-20.0 45.0)
           (-30.0 30.0)
           (-30.0 30.0)
  end
  begin
     id 14 
     name lowerneck
     direction -0.0262159 0.99424 0.103921   
     length 1.69373   
     axis 0 0 0   XYZ
    dof rx ry rz
    limits (-20.0 45.0)
           (-30.0 30.0)
           (-30.0 30.0)
  end
  begin
     id 15 
     name upperneck
     direction 0.0353511 0.977394 -0.20845   
     length 1.70857   
     axis 0 0 0   XYZ
    dof rx ry rz
    limits (-20.0 45.0)
           (-30.0 30.0)
           (-30.0 30.0)
  end
  begin
     id 16
     name head
     direction 0.0139214 0.996594 -0.0812836  
     length 1.72777  
     axis 0 0 0   XYZ
    dof rx ry rz
    limits (-20.0 45.0)
           (-30.0 30.0)
           (-30.0 30.0)
  end
  begin
     id 17 
     name lclavicle
     direction 0.841247 0.537205 -0.0609508  
     length 3.55371  
     axis 0 0 0   XYZ
    dof ry rz
    limits (-20.0 10.0)
           (0.0 20.0)
  end
  begin
     id 18 
     name lhumerus
     direction 1 -4.48964e-011 1.60116e-018   
     length 4.91377   
     axis -180 -30 -90   XYZ
    dof rx ry rz
    limits (-60.0 90.0)
           (-90.0 90.0)
           (-90.0 90.0)
  end
  begin
     id 19
     name lradius
     direction 1 -4.48989e-011 -8.93847e-027   
     length 3.00291   
     axis -180 -30 -90   XYZ
    dof rx
    limits (-10.0 170.0)
  end
  begin
     id 20
     name lwrist
     direction 1 -4.48932e-011 -7.31504e-027   
     length 1.50145   
     axis 5.74121e-015 90 90   XYZ
    dof ry
    limits (-180.0 0.0)
 end
  begin
     id 21 
     name lhand
     direction 1 -4.48971e-011 -1.46301e-026   
     length 0.450922   
     axis 9.33524e-015 90 90   XYZ
    dof rx rz
    limits (-90.0 90.0)
           (-45.0 45.0)
  end
  begin
     id 22 
     name lfingers
     direction 1 -4.49039e-011 -2.92602e-026   
     length 0.363545   
     axis 1.86705e-014 90 90   XYZ
    dof rx
    limits (0.0 90.0)
  end
  begin
     id 23
     name lthumb
     direction 0.707107 -6.34941e-011 0.707107   
     length 0.52198   
     axis -90 45 2.85299e-015   XYZ
    dof rx rz
    limits (-45.0 45.0)
           (-45.0 45.0)
  end
  begin
     id 24 
     name rclavicle
     direction -0.825079 0.56158 -0.0622297   
     length 3.39909  
     axis 0 0 0   XYZ 
    dof ry rz
    limits (-10.0 20.0)
           (-20.0 0.0)
  end
  begin
     id 25 
     name rhumerus
     direction -1 -4.48965e-011 1.61691e-027  
     length 4.86725   
     axis -180 30 90   XYZ
    dof rx ry rz
    limits (-90.0 60.0)
           (-90.0 90.0)
           (-90.0 90.0)
  end
  begin
     id 26 
     name rradius
     direction -1 -4.48964e-011 -2.25776e-027   
     length 3.17144   
     axis -180 30 90   XYZ
    dof rx
    limits (-10.0 170.0)
  end
  begin
     id 27 
     name rwrist
     direction -1 -4.48961e-011 -7.31504e-027   
     length 1.58572   
     axis 5.74121e-015 -90 -90   XYZ
    dof ry
    limits (-180.0 0.0)
  end
  begin
     id 28
     name rhand
     direction -1 -4.49013e-011 -1.46301e-026   
     length 0.419368   
     axis 9.33524e-015 -90 -90   XYZ
    dof rx rz
    limits (-90.0 90.0)
           (-45.0 45.0)
  end
  begin
     id 29
     name rfingers
     direction -1 -4.489e-011 -2.92602e-026   
     length 0.338105   
     axis 1.86705e-014 -90 -90   XYZ
    dof rx
    limits (0.0 90.0)
  end
  begin
     id 30
     name rthumb
     direction -0.707107 -6.35022e-011 0.707107   
     length 0.485453   
     axis -90 -45 -2.85299e-015   XYZ
    dof rx rz
    limits (-45.0 45.0)
           (-45.0 45.0)
  end
:hierarchy
  begin
    root lhipjoint rhipjoint lowerback
    lhipjoint lfemur
    lfemur ltibia
    ltibia lfoot
    lfoot ltoes
    rhipjoint rfemur
    rfemur rtibia
    rtibia rfoot
    rfoot rtoes
    lowerback upperback
    upperback thorax
    thorax lowerneck lclavicle rclavicle
    lowerneck upperneck
    upperneck head
    lclavicle lhumerus
    lhumerus lradius
    lradius lwrist
    lwrist lhand lthumb
    lhand lfingers
    rclavicle rhumerus
    rhumerus rradius
    rradius rwrist
    rwrist rhand rthumb
    rhand rfingers
  end

#!OML:ASF H:\Swim 2\Project 1\Capture day 1\Session 1\male.ASF
:FULLY-SPECIFIED
:DEGREES
1
root 2.20735 13.6938 8.87661 74.8412 -2.36543 -7.31113
lowerback 7.9236 5.32926 -4.40997
upperback -5.09427 6.5769 -1.33641
thorax -10.2436 3.44979 -0.0961325
lowerneck -18.7906 -5.23513 2.97828
upperneck 31.3712 -9.20277 2.26301
head 13.7859 -3.22161 -1.15968
rclavicle 5.56597e-014 0
rhumerus 54.7876 -10.7073 -16.0849
rradius 76.9236
rwrist -61.3382
rhand -40.5975 -11.5373
rfingers 7.12502
rthumb -13.5437 -41.0768
lclavicle 5.56597e-014 0
lhumerus 83.5907 -4.59026 29.6713
lradius 72.425
lwrist 38.1149
lhand -36.5935 5.95846
lfingers 7.12502
lthumb -9.68245 35.7159
rfemur -54.8287 -14.3112 25.4284
rtibia 110.256
rfoot -7.32972 2.73049
rtoes -1.66447
lfemur -49.3682 19.7794 -23.612
ltibia 120.433
lfoot -14.6037 -1.71976
ltoes -12.4043
2
root 2.20716 13.6987 8.8938 75.0108 -2.3096 -7.26021
lowerback 7.70387 5.2998 -4.31014
upperback -5.12489 6.55978 -1.36696
thorax -10.1296 3.436 -0.158801
lowerneck -18.8853 -5.21232 2.93906
upperneck 31.5893 -9.16826 2.23647
head 13.9018 -3.20226 -1.1652
rclavicle 3.97569e-014 5.1684e-015
rhumerus 55.4143 -11.6168 -16.0077
rradius 75.2335
rwrist -60.4174
rhand -38.154 -13.0068
rfingers 7.12502
rthumb -11.1878 -42.6885
lclavicle 3.97569e-014 5.1684e-015
lhumerus 84.3501 -3.8789 29.6957
lradius 71.0934
lwrist 38.0153
lhand -36.3705 6.27007
lfingers 7.12502
lthumb -9.46734 36.0374
rfemur -54.7769 -14.1807 25.1988
rtibia 110.06
rfoot -4.68306 -1.33446
rtoes -3.24591
lfemur -49.1684 19.6919 -23.4411
ltibia 120.416
lfoot -14.4564 -1.76495
ltoes -12.2325
3
root 2.20711 13.7026 8.90744 75.1956 -2.31059 -7.19948
lowerback 7.46247 5.27879 -4.26628
upperback -5.16105 6.54672 -1.4143
thorax -10.0143 3.42757 -0.207926
lowerneck -18.9527 -5.18164 2.93893
upperneck 31.7499 -9.11007 2.15308
head 13.981 -3.17963 -1.19334
rclavicle -2.62396e-014 -1.19271e-015
rhumerus 56.0407 -12.5593 -15.8762
rradius 73.5434
rwrist -59.5398
rhand -37.241 -13.8926
rfingers 7.12502
rthumb -10.3071 -43.62
lclavicle -2.62396e-014 -1.19271e-015
lhumerus 85.0956 -3.22131 29.6694
lradius 69.8035
lwrist 37.9805
lhand -36.3093 6.11358
lfingers 7.12502
lthumb -9.40828 35.8836
rfemur -54.665 -14.0273 24.886
rtibia 109.748
rfoot -3.23044 -1.01368
rtoes -2.62373
lfemur -48.9731 19.5317 -23.33
ltibia 120.287
lfoot -14.2374 -1.81823
ltoes -11.8897
4
root 2.20591 13.7056 8.92916 75.4188 -2.31823 -7.13591
lowerback 7.17655 5.23287 -4.23436
upperback -5.19691 6.50199 -1.44916
thorax -9.87411 3.40537 -0.227411
lowerneck -18.9632 -5.17507 2.86589
upperneck 31.7066 -9.09465 2.21371
head 13.9725 -3.17518 -1.15453
rclavicle 2.94201e-014 -5.1684e-015
rhumerus 56.6138 -13.2434 -15.6616
rradius 72.5029
rwrist -60.0964
rhand -36.1371 -14.8272
rfingers 7.12502
rthumb -9.24209 -44.6046
lclavicle 2.94201e-014 -5.1684e-015
lhumerus 85.7638 -2.51595 29.5423
lradius 68.5176
lwrist 37.8378
lhand -36.4117 5.64203
lfingers 7.12502
lthumb -9.50704 35.4076
rfemur -54.648 -13.8708 24.5986
rtibia 109.342
rfoot -1.99617 -0.545635
rtoes -2.25418
lfemur -48.8782 19.4018 -23.2904
ltibia 120.05
lfoot -14.0174 -1.69266
ltoes -12.2729
5
root 2.20521 13.7084 8.94747 75.6292 -2.31526 -7.07026
lowerback 6.91199 5.19005 -4.19315
upperback -5.23952 6.46127 -1.48263
thorax -9.7534 3.38447 -0.254097
lowerneck -18.9945 -5.14984 2.82749
upperneck 31.7439 -9.04806 2.20815
head 13.9974 -3.15826 -1.1443
rclavicle -5.80451e-014 -2.78299e-015
rhumerus 57.229 -13.9827 -15.4908
rradius 71.2301
rwrist -60.0593
rhand -34.9912 -15.7038
rfingers 7.12502
rthumb -8.13629 -45.5271
lclavicle -5.80451e-014 -2.78299e-015
lhumerus 86.4479 -1.83576 29.4407
lradius 67.2145
lwrist 37.6557
lhand -36.4232 5.35755
lfingers 7.12502
lthumb -9.51819 35.1226
rfemur -54.6057 -13.713 24.3142
rtibia 108.925
rfoot -0.48897 -0.702295
rtoes -1.84275
lfemur -48.7526 19.2441 -23.2135
ltibia 119.8
lfoot -13.7423 -1.67002
ltoes -12.3287
6
root 2.20444 13.7101 8.96571 75.8509 -2.31102 -7.00195
lowerback 6.63742 5.13958 -4.15159
upperback -5.28974 6.41091 -1.51204
thorax -9.6354 3.35918 -0.274951
lowerneck -19.0085 -5.12111 2.7825
upperneck 31.7539 -8.99576 2.21496
head 14.0078 -3.13978 -1.12604
rclavicle 3.97569e-014 -7.55382e-015
rhumerus 57.8621 -14.6658 -15.3278
rradius 70.0408
rwrist -60.1206
rhand -34.0399 -16.5053
rfingers 7.12502
rthumb -7.21812 -46.3622
lclavicle 3.97569e-014 -7.55382e-015
lhumerus 87.1113 -1.16915 29.3198
lradius 65.8981
lwrist 37.3791
lhand -36.4218 4.99176
lfingers 7.12502
lthumb -9.51682 34.7569
rfemur -54.5615 -13.5416 24.0338
rtibia 108.433
rfoot 0.845064 -0.583051
rtoes -1.43426
lfemur -48.6436 19.0629 -23.1397
ltibia 119.472
lfoot -13.3988 -1.66804
ltoes -12.3945
7
root 2.20362 13.7104 8.98377 76.0803 -2.29489 -6.9351
lowerback 6.35079 5.0819 -4.09714
upperback -5.3451 6.35314 -1.53505
thorax -9.51498 3.3298 -0.294367
lowerneck -19.0127 -5.08088 2.73997
upperneck 31.7609 -8.92585 2.21772
head 14.0143 -3.11454 -1.1064
rclavicle -4.29375e-014 9.93923e-015
rhumerus 58.5202 -15.299 -15.1876
rradius 68.9069
rwrist -60.1947
rhand -33.2118 -17.2307
rfingers 7.12502
rthumb -6.41866 -47.1135
lclavicle -4.29375e-014 9.93923e-015
lhumerus 87.7596 -0.516604 29.1876
lradius 64.5584
lwrist 36.9721
lhand -36.3801 4.62261
lfingers 7.12502
lthumb -9.47653 34.3895
rfemur -54.4992 -13.3512 23.768
rtibia 107.862
rfoot 2.11298 -0.502136
rtoes -1.04416
lfemur -48.5393 18.8621 -23.0505
ltibia 119.069
lfoot -12.9793 -1.70542
ltoes -12.4314
8
root 2.2027 13.7093 9.00107 76.3131 -2.27294 -6.87191
lowerback 6.05435 5.02207 -4.0361
upperback -5.40448 6.29363 -1.55437
thorax -9.39298 3.29935 -0.312941
lowerneck -19.0091 -5.03334 2.69802
upperneck 31.7773 -8.84577 2.2201
head 14.0233 -3.08475 -1.08516
rclavicle -3.89618e-014 -2.78299e-015
rhumerus 59.2064 -15.9003 -15.086
rradius 67.7687
rwrist -60.1027
rhand -32.4235 -17.7647
rfingers 7.12502
rthumb -5.65766 -47.6692
lclavicle -3.89618e-014 -2.78299e-015
lhumerus 88.4042 0.111316 29.0552
lradius 63.1849
lwrist 36.4119
lhand -36.2838 4.26113
lfingers 7.12502
lthumb -9.3836 34.0323
rfemur -54.4093 -13.1368 23.5076
rtibia 107.204
rfoot 3.29985 -0.449943
rtoes -0.704792
lfemur -48.4308 18.6405 -22.9468
ltibia 118.584
lfoot -12.4543 -1.79529
ltoes -12.4129
9
root 2.20164 13.7068 9.01773 76.5443 -2.24538 -6.81486
lowerback 5.74985 4.96176 -3.96708
upperback -5.46402 6.23454 -1.57076
thorax -9.26601 3.26868 -0.332511
lowerneck -19.0007 -4.98285 2.65296
upperneck 31.81 -8.76319 2.22813
head 14.0388 -3.05287 -1.06085
rclavicle 1.11319e-014 -1.11319e-014
rhumerus 59.9119 -16.4686 -15.024
rradius 66.627
rwrist -59.8532
rhand -31.6386 -18.101
rfingers 7.12502
rthumb -4.89976 -48.0243
lclavicle 1.11319e-014 -1.11319e-014
lhumerus 89.0459 0.718775 28.9195
lradius 61.7798
lwrist 35.7002
lhand -36.171 3.93438
lfingers 7.12502
lthumb -9.27476 33.7104
rfemur -54.2817 -12.8951 23.25
rtibia 106.456
rfoot 4.39891 -0.422244
rtoes -0.428862
lfemur -48.3153 18.4048 -22.8259
ltibia 118.02
lfoot -11.8063 -1.93419
ltoes -12.356
10
root 2.20032 13.7028 9.03399 76.7682 -2.21709 -6.76704
lowerback 5.44186 4.90128 -3.89017
upperback -5.51856 6.17568 -1.5869
thorax -9.13083 3.23746 -0.355882
lowerneck -18.9905 -4.92945 2.60359
upperneck 31.847 -8.67837 2.24533
head 14.0568 -3.01918 -1.03183
rclavicle -3.4191e-014 1.15295e-014
rhumerus 60.6271 -17.0049 -14.9887
rradius 65.5035
rwrist -59.5479
rhand -30.9657 -18.3417
rfingers 7.12502
rthumb -4.25006 -48.2791
lclavicle -3.4191e-014 1.15295e-014
lhumerus 89.6812 1.31091 28.7821
lradius 60.3513
lwrist 34.8534
lhand -36.0672 3.67764
lfingers 7.12502
lthumb -9.17462 33.4581
rfemur -54.1115 -12.6237 22.988
rtibia 105.615
rfoot 5.41936 -0.40739
rtoes -0.227127
lfemur -48.1812 18.1641 -22.6871
ltibia 117.371
lfoot -11.0326 -2.11194
ltoes -12.2661
